HIERARCHY
ROOT Hips
{
	OFFSET 0.000000 0.000000 0.000000
	CHANNELS 6 Xposition Yposition Zposition Zrotation Yrotation Xrotation 
	JOINT LHipJoint
	{
		OFFSET 0.000000 0.000000 0.000000
		CHANNELS 3 Zrotation Yrotation Xrotation
		JOINT LeftUpLeg
		{
			OFFSET 1.363060 -1.794630 0.839290
			CHANNELS 3 Zrotation Yrotation Xrotation
			JOINT LeftLeg
			{
				OFFSET 2.448110 -6.726130 0.000000
				CHANNELS 3 Zrotation Yrotation Xrotation
				JOINT LeftFoot
				{
					OFFSET 2.562200 -7.039590 0.000000
					CHANNELS 3 Zrotation Yrotation Xrotation
					JOINT LeftToeBase
					{
						OFFSET 0.157640 -0.433110 2.322550
						CHANNELS 3 Zrotation Yrotation Xrotation
						End Site
						{
							OFFSET 0.000000 0.000000 0.000000
						}
					}
				}
			}
		}
	}
	JOINT RHipJoint
	{
		OFFSET 0.000000 0.000000 0.000000
		CHANNELS 3 Zrotation Yrotation Xrotation
		JOINT RightUpLeg
		{
			OFFSET -1.305520 -1.794630 0.839290
			CHANNELS 3 Zrotation Yrotation Xrotation
			JOINT RightLeg
			{
				OFFSET -2.542530 -6.985550 0.000000
				CHANNELS 3 Zrotation Yrotation Xrotation
				JOINT RightFoot
				{
					OFFSET -2.568260 -7.056230 0.000000
					CHANNELS 3 Zrotation Yrotation Xrotation
					JOINT RightToeBase
					{
						OFFSET -0.164730 -0.452590 2.363150
						CHANNELS 3 Zrotation Yrotation Xrotation
						End Site
						{
							OFFSET 0.000000 0.000000 0.000000
						}
					}
				}
			}
		}
	}
	JOINT LowerBack
	{
		OFFSET 0.000000 0.000000 0.000000
		CHANNELS 3 Zrotation Yrotation Xrotation
		JOINT Spine
		{
			OFFSET 0.028270 2.035590 -0.193380
			CHANNELS 3 Zrotation Yrotation Xrotation
			JOINT Spine1
			{
				OFFSET 0.056720 2.048850 -0.042750
				CHANNELS 3 Zrotation Yrotation Xrotation
				JOINT Neck
				{
					OFFSET 0.000000 0.000000 0.000000
					CHANNELS 3 Zrotation Yrotation Xrotation
					JOINT Neck1
					{
						OFFSET -0.054170 1.746240 0.172020
						CHANNELS 3 Zrotation Yrotation Xrotation
						JOINT Head
						{
							OFFSET 0.104070 1.761360 -0.123970
							CHANNELS 3 Zrotation Yrotation Xrotation
							End Site
							{
								OFFSET 0.000000 0.000000 0.000000
							}
						}
					}
				}
				JOINT LeftShoulder
				{
					OFFSET 0.000000 0.000000 0.000000
					CHANNELS 3 Zrotation Yrotation Xrotation
					JOINT LeftArm
					{
						OFFSET 3.362410 1.200890 -0.311210
						CHANNELS 3 Zrotation Yrotation Xrotation
						JOINT LeftForeArm
						{
							OFFSET 4.983000 -0.000000 -0.000000
							CHANNELS 3 Zrotation Yrotation Xrotation
							JOINT LeftHand
							{
								OFFSET 3.483560 -0.000000 -0.000000
								CHANNELS 3 Zrotation Yrotation Xrotation
								JOINT LeftFingerBase
								{
									OFFSET 0.000000 0.000000 0.000000
									CHANNELS 3 Zrotation Yrotation Xrotation
									JOINT LeftHandIndex1
									{
										OFFSET 0.715260 -0.000000 -0.000000
										CHANNELS 3 Zrotation Yrotation Xrotation
										End Site
										{
											OFFSET 0.000000 0.000000 0.000000
										}
									}
								}
								JOINT LThumb
								{
									OFFSET 0.000000 0.000000 0.000000
									CHANNELS 3 Zrotation Yrotation Xrotation
									End Site
									{
										OFFSET 0.000000 0.000000 0.000000
									}
								}
							}
						}
					}
				}
				JOINT RightShoulder
				{
					OFFSET 0.000000 0.000000 0.000000
					CHANNELS 3 Zrotation Yrotation Xrotation
					JOINT RightArm
					{
						OFFSET -3.136600 1.374050 -0.404650
						CHANNELS 3 Zrotation Yrotation Xrotation
						JOINT RightForeArm
						{
							OFFSET -5.241900 -0.000000 -0.000000
							CHANNELS 3 Zrotation Yrotation Xrotation
							JOINT RightHand
							{
								OFFSET -3.444170 -0.000000 -0.000000
								CHANNELS 3 Zrotation Yrotation Xrotation
								JOINT RightFingerBase
								{
									OFFSET 0.000000 0.000000 0.000000
									CHANNELS 3 Zrotation Yrotation Xrotation
									JOINT RightHandIndex1
									{
										OFFSET -0.622530 -0.000000 -0.000000
										CHANNELS 3 Zrotation Yrotation Xrotation
										End Site
										{
											OFFSET 0.000000 0.000000 0.000000
										}
									}
								}
								JOINT RThumb
								{
									OFFSET 0.000000 0.000000 0.000000
									CHANNELS 3 Zrotation Yrotation Xrotation
									End Site
									{
										OFFSET 0.000000 0.000000 0.000000
									}
								}
							}
						}
					}
				}
			}
		}
	}
}
MOTION
Frames: 9
Frame Time: 0.008333
4.671641 18.223213 25.342853 -178.836808 7.841511 -144.176362 2.556059 -7.620861 -12.122688 2.576884 -17.091223 -40.881631 -2.989211 8.426889 6.699300 -10.188098 36.604648 18.572479 0.666400 -5.220500 -14.538500 -1.604276 3.110480 -5.056454 16.458684 11.423505 -26.075250 3.230372 -8.929713 21.096309 0.813403 -7.270657 7.376485 -0.329900 3.691400 -10.209900 2.180511 -2.969630 -1.996718 6.022008 2.603402 -41.431342 -1.793678 2.363051 -4.343371 -19.266447 -14.199405 -12.154472 5.152402 -15.939975 16.266300 2.418700 -7.815300 11.352700 -11.320737 -9.044348 2.480372 -76.998506 23.688542 -13.429892 22.529818 -28.002927 -5.617767 -0.003146 3.776409 -14.931805 28.301824 41.403416 17.570600 -7.125000 0.000000 0.000000 -10.733900 70.682900 -6.603600 12.028498 10.037723 5.769194 58.921508 0.292541 25.113268 -28.838215 33.439572 -6.453563 -1.122824 -4.715113 11.328233 -16.008082 -28.252965 6.435600 7.125000 0.000000 0.000000 13.705400 -53.489500 -2.904100 
4.646712 18.216818 25.197508 -178.972780 8.034085 -144.157791 2.480765 -7.592939 -12.133080 1.896475 -16.620579 -41.007275 -3.010275 8.571549 7.128209 -9.456837 36.003669 20.474929 0.661400 -5.201500 -14.484100 -1.584269 3.067820 -5.001726 16.145799 11.525995 -25.766620 3.155994 -8.984155 21.343109 0.865879 -7.370894 7.369204 -0.376100 3.938700 -10.904400 1.994459 -3.012152 -2.044857 5.993946 2.572253 -41.495041 -1.685346 2.365666 -4.394375 -19.290855 -14.215037 -12.123941 5.221900 -15.973093 16.216443 2.452000 -7.828900 11.343000 -11.311513 -9.053709 2.478518 -77.022153 23.766686 -13.616427 22.350986 -27.796170 -5.543703 -0.003102 3.772936 -14.567221 27.980134 41.378413 17.349900 -7.125000 0.000000 0.000000 -11.113200 70.554900 -6.807200 12.024022 10.048037 5.768518 59.105011 0.181289 24.998395 -28.886063 33.498738 -6.475527 -1.103073 -4.722163 11.296653 -15.897457 -28.303677 6.409200 7.125000 0.000000 0.000000 13.819300 -53.520100 -2.939300 
4.621458 18.215951 25.052271 -179.175838 8.241944 -144.128092 2.402688 -7.571650 -12.119968 1.397515 -16.440158 -41.103873 -3.021758 8.723861 7.509438 -8.856210 35.638195 22.063123 0.636200 -5.103200 -14.203000 -1.577939 3.038326 -4.964318 15.751622 11.663762 -25.482578 3.066795 -9.060161 21.632038 0.951017 -7.544579 7.403419 -0.424700 4.182700 -11.591200 1.730853 -3.074933 -2.084746 5.946853 2.520034 -41.577556 -1.533925 2.363989 -4.462088 -19.314834 -14.229351 -12.087791 5.291326 -16.004927 16.162565 2.486800 -7.842300 11.331500 -11.300675 -9.067719 2.477084 -77.065571 23.826768 -13.805809 22.177479 -27.594859 -5.471063 0.003012 3.767734 -14.139935 27.658939 41.305419 17.112700 -7.125000 0.000000 0.000000 -11.438600 70.383000 -6.964500 12.019546 10.058568 5.768030 59.298266 0.008816 24.869026 -28.930339 33.555492 -6.500440 -1.087429 -4.734783 11.270173 -15.817123 -28.407453 6.406400 7.125000 0.000000 0.000000 13.926300 -53.601300 -2.990700 
4.596421 18.217686 24.907468 -179.443329 8.445968 -144.088132 2.330006 -7.548709 -12.087970 0.947383 -16.396169 -41.213388 -3.035565 8.870574 7.875591 -8.317452 35.273235 23.369668 0.601000 -4.962600 -13.802000 -1.592851 3.019885 -4.944694 15.297343 11.842490 -25.239366 2.955619 -9.174691 22.001449 1.070484 -7.790374 7.444410 -0.474100 4.415800 -12.249400 1.398166 -3.157337 -2.116667 5.873670 2.443871 -41.675779 -1.346637 2.356196 -4.540980 -19.336014 -14.249472 -12.060266 5.361554 -16.043020 16.112767 2.521300 -7.858100 11.325300 -11.288059 -9.086695 2.477356 -77.115439 23.859390 -13.977388 22.016483 -27.408121 -5.403174 0.012719 3.761457 -13.689484 27.350644 41.206664 16.875900 -7.125000 0.000000 0.000000 -11.718700 70.192500 -7.087000 12.013685 10.069134 5.766774 59.517907 -0.215731 24.690869 -28.952418 33.589150 -6.516673 -1.082000 -4.743228 11.289263 -15.786503 -28.469686 6.411300 7.125000 0.000000 0.000000 13.972600 -53.650900 -3.018000 
4.571926 18.218444 24.763098 -179.755754 8.623216 -144.041277 2.275458 -7.514607 -12.043045 0.399886 -16.307389 -41.385793 -3.060386 9.008728 8.289506 -7.776899 34.665226 24.420945 0.565700 -4.817100 -13.387500 -1.635794 3.008315 -4.940955 14.823897 12.051067 -25.052404 2.817040 -9.342511 22.488724 1.211584 -8.076022 7.460905 -0.523200 4.635700 -12.872500 1.017742 -3.253526 -2.137595 5.773381 2.346289 -41.781373 -1.136550 2.341534 -4.621509 -19.358481 -14.286104 -12.064508 5.436351 -16.097986 16.078307 2.554700 -7.880100 11.335600 -11.275137 -9.110926 2.480283 -77.153757 23.849815 -14.106942 21.869779 -27.239273 -5.341901 0.026790 3.756287 -13.247155 27.108355 41.109567 16.683400 -7.125000 0.000000 0.000000 -11.916100 70.024600 -7.163100 12.008301 10.080922 5.765409 59.763810 -0.502610 24.457501 -28.966218 33.611423 -6.528479 -1.085497 -4.745358 11.338968 -15.805473 -28.467530 6.418500 7.125000 0.000000 0.000000 13.949500 -53.649000 -3.012200 
4.548298 18.215193 24.619053 179.913227 8.754890 -144.005529 2.248939 -7.462125 -11.992823 -0.367371 -16.008675 -41.655642 -3.098433 9.145233 8.820054 -7.179739 33.649024 25.292399 0.544300 -4.726800 -13.130900 -1.708978 2.997511 -4.947181 14.384767 12.250312 -24.929717 2.647961 -9.570683 23.121569 1.346520 -8.340253 7.451127 -0.571100 4.839500 -13.451400 0.620658 -3.353202 -2.137498 5.651847 2.233802 -41.880165 -0.922862 2.319116 -4.696398 -19.384557 -14.343105 -12.102513 5.520002 -16.176134 16.055906 2.587800 -7.910900 11.361900 -11.262168 -9.138890 2.486243 -77.172211 23.786917 -14.185083 21.740808 -27.093140 -5.287939 0.041896 3.750716 -12.827842 26.893905 41.010269 16.509100 -7.125000 0.000000 0.000000 -12.077500 69.864700 -7.218000 12.001003 10.093909 5.762596 60.049491 -0.825764 24.124927 -28.943408 33.594060 -6.523050 -1.100490 -4.737762 11.472553 -15.861185 -28.371733 6.416200 7.125000 0.000000 0.000000 13.856600 -53.567300 -2.963700 
4.525320 18.207172 24.475442 179.591533 8.833405 -144.000927 2.256244 -7.389540 -11.941712 -1.393845 -15.429574 -42.032903 -3.144476 9.293826 9.515118 -6.512834 32.202615 26.034395 0.531400 -4.671200 -12.973100 -1.810091 2.982207 -4.957356 14.021477 12.404697 -24.866735 2.448994 -9.856202 23.905796 1.445087 -8.520610 7.439471 -0.616500 5.024900 -13.979700 0.234495 -3.441796 -2.103750 5.513361 2.116123 -41.956208 -0.722708 2.290024 -4.757388 -19.419601 -14.421557 -12.170441 5.625288 -16.281391 16.029409 2.625800 -7.952400 11.397300 -11.250656 -9.169095 2.495551 -77.160349 23.658601 -14.191309 21.631166 -26.972641 -5.242077 0.058360 3.745491 -12.452949 26.732731 40.915693 16.371200 -7.125000 0.000000 0.000000 -12.179100 69.726800 -7.241800 11.993389 10.108396 5.758617 60.370836 -1.177530 23.689725 -28.892919 33.545296 -6.503218 -1.122866 -4.720611 11.672778 -15.933256 -28.183396 6.397000 7.125000 0.000000 0.000000 13.713600 -53.404600 -2.877100 
4.502667 18.195466 24.332157 179.307238 8.860785 -144.044602 2.298742 -7.298323 -11.887587 -2.638027 -14.595777 -42.498346 -3.190255 9.464088 10.387054 -5.806849 30.388752 26.609045 0.520000 -4.621700 -12.832700 -1.932791 2.957915 -4.966556 13.764595 12.476118 -24.851760 2.222884 -10.188430 24.829766 1.483570 -8.569711 7.467613 -0.662400 5.205300 -14.495200 -0.118527 -3.509442 -2.025280 5.378860 2.004463 -41.996156 -0.545756 2.255247 -4.800774 -19.469432 -14.514814 -12.255750 5.749943 -16.406884 15.981287 2.669200 -8.003400 11.429700 -11.242283 -9.200116 2.506560 -77.133861 23.461863 -14.142973 21.543279 -26.880830 -5.204692 0.074196 3.739461 -12.123152 26.593935 40.821916 16.248600 -7.125000 0.000000 0.000000 -12.256600 69.598200 -7.253200 11.986480 10.124495 5.754362 60.705760 -1.554336 23.189021 -28.824910 33.475232 -6.474394 -1.147580 -4.699233 11.906159 -16.003568 -27.953007 6.366300 7.125000 0.000000 0.000000 13.557100 -53.203100 -2.775900 
4.479473 18.181810 24.188979 179.071606 8.845899 -144.141213 2.369967 -7.193464 -11.825489 -4.000371 -13.611998 -43.010049 -3.225966 9.658705 11.402432 -5.128613 28.377660 26.935248 0.510900 -4.581600 -12.719000 -2.069806 2.923894 -4.973731 13.616287 12.445857 -24.876105 1.973709 -10.553780 25.866773 1.454670 -8.475601 7.584324 -0.709900 5.384700 -15.009100 -0.427802 -3.551920 -1.900330 5.261656 1.906051 -41.997116 -0.394551 2.216775 -4.829356 -19.541954 -14.613748 -12.332551 5.897215 -16.544617 15.890237 2.722300 -8.062200 11.444300 -11.237782 -9.230897 2.518058 -77.113274 23.212576 -14.043252 21.484530 -26.824409 -5.176510 0.088960 3.729833 -11.848354 26.452494 40.671787 16.104900 -7.125000 0.000000 0.000000 -12.282900 69.418300 -7.219500 11.980880 10.141641 5.750232 61.034342 -1.957591 22.663623 -28.747195 33.394330 -6.444171 -1.166630 -4.685479 12.137961 -16.034154 -27.792697 6.338400 7.125000 0.000000 0.000000 13.462400 -53.058300 -2.707800 
